<svg enable-background="new 0 0 48 48" height="48" version="1.1" width="48" xml:space="preserve" xmlns="http://www.w3.org/2000/svg" xmlns:xlink="http://www.w3.org/1999/xlink" style=""><rect id="backgroundrect" width="100%" height="100%" x="0" y="0" fill="none" stroke="none"/><g class="currentLayer" style=""><title>Layer 1</title><g id="Expanded" class="" fill="#e84141" fill-opacity="1" stroke="#e84141" stroke-opacity="1"><g id="svg_1" fill="#e84141" fill-opacity="1" stroke="#e84141" stroke-opacity="1"><g id="svg_2" fill="#e84141" fill-opacity="1" stroke="#e84141" stroke-opacity="1"><path d="M41,48H7V7h34V48z M9,46h30V9H9V46z" id="svg_3" fill="#e84141" fill-opacity="1" stroke="#e84141" stroke-opacity="1"/></g><g id="svg_4" fill="#e84141" fill-opacity="1" stroke="#e84141" stroke-opacity="1"><path d="M35,9H13V1h22V9z M15,7h18V3H15V7z" id="svg_5" fill="#e84141" fill-opacity="1" stroke="#e84141" stroke-opacity="1"/></g><g id="svg_6" fill="#e84141" fill-opacity="1" stroke="#e84141" stroke-opacity="1"><path d="M16,41c-0.553,0-1-0.447-1-1V15c0-0.553,0.447-1,1-1s1,0.447,1,1v25C17,40.553,16.553,41,16,41z" id="svg_7" fill="#e84141" fill-opacity="1" stroke="#e84141" stroke-opacity="1"/></g><g id="svg_8" fill="#e84141" fill-opacity="1" stroke="#e84141" stroke-opacity="1"><path d="M24,41c-0.553,0-1-0.447-1-1V15c0-0.553,0.447-1,1-1s1,0.447,1,1v25C25,40.553,24.553,41,24,41z" id="svg_9" fill="#e84141" fill-opacity="1" stroke="#e84141" stroke-opacity="1"/></g><g id="svg_10" fill="#e84141" fill-opacity="1" stroke="#e84141" stroke-opacity="1"><path d="M32,41c-0.553,0-1-0.447-1-1V15c0-0.553,0.447-1,1-1s1,0.447,1,1v25C33,40.553,32.553,41,32,41z" id="svg_11" fill="#e84141" fill-opacity="1" stroke="#e84141" stroke-opacity="1"/></g><g id="svg_12" fill="#e84141" fill-opacity="1" stroke="#e84141" stroke-opacity="1"><rect height="2" width="48" y="7" id="svg_13" fill="#e84141" fill-opacity="1" stroke="#e84141" stroke-opacity="1"/></g></g></g></g></svg>